<?xml version="1.0" encoding="utf-8"?>
<!-- Generator: Adobe Illustrator 21.1.0, SVG Export Plug-In . SVG Version: 6.00 Build 0)  -->
<svg version="1.1" id="Laag_1" xmlns="http://www.w3.org/2000/svg" xmlns:xlink="http://www.w3.org/1999/xlink" x="0px" y="0px"
    width="16px" height="16px" viewBox="0 0 210 52" style="enable-background:new 0 0 210 52;" xml:space="preserve">
<style type="text/css">
    .st0{fill:#000066;}
    .st1{fill:#FFFFFF;}
    .st2{fill:#FF6600;}
</style>
<path class="st0" d="M116.9,38.4v9.9c-5.6,2.8-10.8,4.2-16.1,4.2c-14.5,0-23.3-8.5-23.3-19.3c0-11.7,10-21.3,22.7-21.3
    c3.1,0,5.5,0.6,8,1.4c1.8,0.6,2.9,1.2,4,1.2c1,0,1.3-1.6,1.4-2.6h1.4l1.3,13.4h-1.7c-0.7-2.7-1.9-4.8-3.6-6.4
    c-2.6-2.7-6.2-4.1-10.3-4.1c-8.7,0-13.8,6.9-13.8,17.3c0,10.3,6.2,17.2,14.5,17.2c2.4,0,4.7-0.6,7.4-1.8V37.5c0-3.3-0.5-4.5-5.3-4.5
    v-1.5h17.5v1.5C116.7,32.9,116.9,34.3,116.9,38.4z M68.5,22.1v29.8h-2.3L36.5,21.1c0.1,0.8,0.1,1.5,0.1,2.4v18.7
    c0,5.7,0,7.8,5.2,7.8v1.5h-14V50c5.3,0,5.3-2.5,5.3-7.8V20.9c0-3.2,0-6.7-5.6-6.7v-1.5h13.2l24.5,25.1c-0.1-0.7-0.1-1.1-0.1-2.1
    V22.1c0-5.5,0.1-7.9-5.1-7.9v-1.5h14v1.5C68.8,14.2,68.5,16.4,68.5,22.1z M0.9,51.6V50c3.4,0,5.7-0.3,5.7-5.1V19.4
    c0-5-1.8-5.2-5.7-5.2v-1.5h19.7v1.5c-4,0-5.7,0.1-5.7,5.2v25.5c0,4.9,2.1,5.1,5.7,5.1v1.5H0.9z"/>
<g>
    <polygon class="st1" points="189.3,26.1 185.1,22.9 183.1,23.3 181.8,26.1 174.3,27.1 169.3,22.3 164.7,9.3 163,4.5 159,3.7
        154.4,5.7 148.3,3.6 144.8,4.5 143.6,7.4 141.5,11.1 140.9,17.3 143.2,25.8 141.2,28.8 143.9,34.9 141.5,39.1 139.9,43.9
        136.6,43.5 132.5,45.3 131,47.6 131.2,50.6 132.2,51.1 138.1,51.2 150.2,51 151.9,51.6 161.1,51.6 186.7,51.6 193.2,46.8 192,31.9
            "/>
    <path class="st1" d="M195.2,13.1l-2.4-4.8l-0.5-0.4l-1.4-0.4l-4.5,1.5l-0.2,2.6l0.2,0.3c0,0,0.4,0.7,0.7,1c0.3,0.3,3.4,1.3,3.4,1.3
        L195.2,13.1z"/>
</g>
<path class="st2" d="M155.5,51.6c-0.7-1.3-0.8-3.2-0.8-3.6c0-0.7,0-1.7,0.4-2.4l-1.5,0.3c-0.4,0.5-0.6,0.8-0.6,1.1l0.7-0.3
    c0.1,0,0.3,0.3,0.4,0.6c-0.1,0.7-1,0.7-1.3,1c-0.4,1.4,0.8,2.2,1,3.4H155.5z M209.1,33.6c0-6.1-2.5-12.2-7-16.6
    c-1.9-2-4.1-2.9-5.7-4.8c-0.8-0.8-1.5-1.7-2-2.8c-0.7-0.7-1.1-1.1-2-1.5c0.1,0.4,0.3,0.8,0.4,1.3h-0.1c-0.7,0-1.4-0.4-2-0.8l0.5-0.6
    c-0.1-0.3-0.5-0.3-0.8-0.3c-2.2-0.4-4.3,0.8-6.4,1.2V9c1.4,0.4,1.7,2.1,2.4,2.9c0.1,0,0.3,0,0.8,0c0.3,0,0.7,0.3,1,0.3
    c0-0.3-0.3-0.8-0.3-0.8c0.3-0.3,0.6-0.3,0.8,0c0.7,0.4,1.7-0.3,2.4,0.8c-0.8,0-1.7,0-2.4,0.4c0,0.1,0.4,0.4,0.3,0.7
    c-0.7-0.3-1.5,0-1.8-0.5l-0.1,0.1c0.8,1,2.1,1.8,3.4,2.2c1.8,0.3,3.4-0.6,5.1-0.1c6.3,3.1,10.8,10.3,10.8,17.5
    c0,10.3-5.9,14.3-9.5,14.3c-0.7,0-1.8-0.4-2.2-0.8c0.4-1.4,0.7-3.1,0.7-5.6c0-5.9-2.3-12.4-5.6-15.6c-1.5-1.5-3.2-2.8-4.9-2.8
    c-0.8,0-1.7,0-2.2,0.7c-0.7,0.6-1.1,1.7-1,2.4c-1.1,0.8-2.9,1.3-4.3,1.3c-1.5,0-3.5-0.6-5.2-2c0-0.6,0-1.3,0-2.1
    c-0.4-0.1-1.8-1-1.1-1.6c0.4,0.1,0.7,0.4,0.8,0.5c-0.1-0.9-0.1-2-0.8-2.9c-0.3,0-0.7,0-1.1-0.3c-0.4-0.4-0.8-1-0.8-1.7
    c0.4,0.7,1.1,0.4,1.5,0.8c-0.7-1.7-0.4-2.4-1.7-4.8c-0.3-1.3-1.5-2-2.4-2.8c-0.4-0.3-0.6-0.7-1.1-0.7c-0.6-0.1-0.6-0.8-0.6-1.2
    c0.1,0,0.6,0.3,0.8,0.4c-0.8-1.9-1.4-4-3.2-5.1L162,3c-0.7,0-1.5,0-2.2,0c0.3-0.3,0.8-0.4,1.3-0.7c-0.4-0.4-0.7-0.6-1.5-0.6
    c-0.4,0.1-0.9,0.6-1.4,0.6H158c0-0.4-0.1-1,0.7-1.3c-0.8-0.1-1.5-0.1-2.5,0c-0.1,0.7-0.6,1.1-0.6,1.7c-0.4,0.3-0.6,0.7-1,1.1
    c0-0.8,0.4-1.7,0.6-2.5c-0.6,0.1-1.3,0.6-1.5,0.6c-1.1-0.6-2.5-1.1-3.1-1.1c0.8,0.6,0.4,1.5,0.6,2.2l-0.6-0.3c-0.1-0.6-0.8-1-1-1.7
    c-0.8,0-1.4,0.3-2.1,0.7v0.1c0.4,0,1,0.4,1.3,0.8c-1,0-1.7-0.4-2.7-0.4c0,0,0-0.1-0.1-0.1c-0.4,0.1-0.8,0.6-1,0.8
    c-1,0.8-1.7,1.5-2.1,2.8c0.3,0,0.7,0,0.8,0.1c-0.6,0.1-0.8,0.8-1.4,1c0,0.5,0,1.3,0,2c-0.4,0.4-1,0.8-1.3,1.7
    c-0.7,2.2-0.8,4.7-0.8,7.5c-0.1,0.6-0.4,0.7-0.7,0.8v2.2c0,0,0.8-0.8,1.3-1c0,0.6,0,1.3,0,1.7c-0.6,0-1,0.7-1,1.1
    c0,0.6,0.1,1.1,0.1,1.7c0,0.3,0,0.3,0.1,0.6c0-0.3,0.3-0.6,0.7-0.7c0,0,0.3-0.3,0.8-0.3c-0.4,0.4-0.6,1-0.8,1.5
    c-0.4,0.4-0.4,0.4-0.4,0.4s-0.1,0.3-0.1,0.4c0.6,2.9,1.4,5.4,2.5,8.1c-1.1,1.8-2.4,5.3-3.2,8.6c-0.7-0.7-1.7-0.8-2.5-0.8
    c-0.8,0.1-1.6,0.4-2.2,1.3c-0.8-0.4-2-0.3-2.5,0.3c-1.2,1-1.2,1.6-1.2,2.4c-0.3,0.3-0.8,1-0.8,2c0,1.3,0.1,2.1,0.8,3.2h21
    c-0.1-0.4-0.4-1-0.7-1.3c-0.4-0.8-0.1-2-0.1-2.8c0.4-0.8,0.8-1.6,1.4-2.3c0.1-0.4,0-0.4,0.1-0.6l1-0.2c0.6,0,1-0.4,1.7-0.4
    c0.4,0.6,0.4-0.4,1.1-0.7c1.5-0.3,3,0,3.8,1.1c0,0.2,0.1,0.2,0.1,0.3c-0.1,0-0.4,0-0.7,0c-0.8-0.3-1.7-0.7-2.7-0.3
    c0,0.3-0.1,0.3-0.1,0.7c0,0.3,0,0.3,0,0.7c0.6,0,1,0.5,1.5,0.8c0.3-0.4,1-0.8,1.6-0.8c0.7,0,1.7,0.4,1.7,1.5c0,0.6,0,1.1,0,1.5
    c0.6,0.6,1.3,0.7,2,1c-0.3,0.6-0.7,0.6-1.1,0.6h-1.1c-0.1-0.1-0.4-0.1-0.4-0.6c-0.4,0.6-0.7,1.1-1,1.7h16.2c-0.3-0.6-0.6-1-0.7-1.3
    c-0.3-0.8-0.3-2-0.3-2.8l1.5-2.1c0.8,0,1.5-0.3,3.1-0.4c0.3-0.4,0-0.6,1.3-0.6c1,0,1.7,0.2,2,0.3c0.1,0.3,0.1,0.3,0,0.6
    c-0.3,0.3-0.8-0.3-1.3-0.1c-0.3,0.3,0.1,0.4,0.1,0.7c0.3,0.2-1.3-0.3-1.3-0.3s-0.3,0.8-0.4,1.1c0,0,0.6,0.6,0.8,0.8
    c0.3,0.4-0.4,0.8-0.4,1.3c-0.3-0.1-0.8-0.6-0.8-0.4c-0.3,1.1,0,2.1-0.1,3.2c0.6,0,1,0,1.5,0l0.1-2.4c0.1-1.4,1.8-3.9,2.8-3.9
    c0.6,0,1,0.3,1.4,0.6c0.3,0.5,0.9,0.8,0.9,1.1c0,0.3-0.4,0.4-1,0.4c-0.3,0-0.3-0.4-0.7-0.7l-0.8,0.8c0,0,1,0.8,1,1.4
    c0,0.7-0.1,1-0.6,1.4l-0.8-1.7c-0.4,0-1.1,0.8-1.1,1.3c0,0.6-0.3,0.8-0.3,1.7h8.6c1,0,1.8-0.3,2.8-0.8c0.6,0,1,0,1.7,0
    c3.4,0,6.1-1,8.6-3.5C207.1,44,209.1,38.7,209.1,33.6z M179.1,46.3l-1.4,0.1c0.6,0.3,0.6,1,0.6,1.1c0,0.4-0.3,0.8-0.6,1.1
    c-0.3-0.3-0.3-0.7-0.6-1.1c-0.3,0-0.4,0.7-0.4,1c0,1.3,0.6,2.2,1,3.1h1.3c-0.1-1.1-0.4-2.1-0.4-3.4
    C178.5,47.5,178.9,46.7,179.1,46.3z M160.8,47.9c0-0.6-0.4-0.7-1-0.7c-0.3,0-0.9,0.4-0.9,0.7c0,0.6-0.3,3.6-0.3,3.6h0.9
    C159.9,50.3,160.8,48.6,160.8,47.9z M157.8,47.8c-0.1,0,0.1,0.3-1.3-1.1c-0.3,0-0.7,0.8-0.7,1.1c0,1.1,0.3,2.7,0.7,3.8h1.1
    C157.7,50.3,157.8,48.9,157.8,47.8z M194.3,12.8c-0.3-0.6-0.8-0.8-1.3-0.8c-0.4-0.6-1-1.3-1.5-1.3c0.4,0,1-0.4,1.7-0.4
    c0.3,0.7,0.8,1.1,1,1.7L194.3,12.8z M190.1,9.8c-0.6,0-1,0-1.5,0c-0.3-0.4-0.7,0-1,0c-0.3,0-0.4,0-1-0.4c0.8,0,1.2-0.4,1.9-0.7
    C189.1,9.1,189.7,9.2,190.1,9.8z M186.8,25.7c-0.9-0.3-1.4-0.7-2.3-0.7c-0.3,0-1.5,0.4-1.7,0.7c-0.4-0.6,0.3-1.7,0.8-2
    c0.6-0.3,0.8-0.1,1.1,0c0,0.8,0.9,0.4,1.5,0.7C186.5,24.9,186.6,25.2,186.8,25.7z M186.6,27.8c-0.8,0-0.9-0.1-1.4-0.1
    c-0.7,0-1.5,0.2-2,0.9c-0.3-0.6-0.1-0.8,0-1.2c0.4-0.4,1.1-1,1.7-1C185.9,26.4,186.6,27.1,186.6,27.8z M189.8,30.8
    c-1.1-0.7-2.8-1.1-3.7-1.1c-0.5,0-2.2,0.7-2.7,1.3l-0.3-1.3c0.8-0.1,0.8-0.8,1.4-0.8c0.4,0,1-0.1,1.4-0.1c0.4,0,0.7-0.3,0.8-0.3
    c0.7,0,0.4,0.7,0.8,0.7c0.4,0,0.7-0.3,1-0.3C189.1,28.9,189.7,30,189.8,30.8z M190.3,33.9c-1,0-2-0.3-2.1-0.7
    c-0.3-0.3,0-0.8-0.7-0.8c-0.3,0-0.7,0.4-0.7,0.4c-0.3,0.1-1-0.4-1,0c0,0.7-0.5,1-1.2,1c-0.3,0-0.6,0-0.8-0.1c0-0.4,0-1,0-1.4
    c1.8,0,1.7-0.6,2.4-0.6c0.5,0,0.9,0.3,1.3,0.3c0.7,0,0.3-0.3,1-0.3c0.7,0,1,0.6,1.4,0.7C189.8,32.8,190.3,33.4,190.3,33.9z
    M189,36.9c-0.4-0.1-1.4-0.3-1.4-0.7c0-0.6-0.3-0.7-1-0.7c-0.5,0-0.9,0.1-1.7,0.4c0,0-0.4-0.6-0.6-1.1c0.3-0.1,1.4-0.4,1.9-0.4
    c0.9,0,1.9,0,1.9,0.4C188.2,35.4,189,35.5,189,36.9z M164.8,15.2c0,0.1-0.3,1.4-0.3,1.4l-1.1,0.3l0.7-3
    C164.4,14.3,164.8,14.9,164.8,15.2z M191.7,41.8c0,0.8,0,1.1-0.4,1.8l-0.8-1.3c0.3-0.4,0.3-1,0.7-1.7
    C191.2,40.7,191.7,41.7,191.7,41.8z M188.3,40c-1,0-0.4-2-2.5-2c-0.4,0-0.6,0.7-1.2,0.8c0-0.1,0.1-1,0.1-1c0-0.3,0.1-0.8,0.7-1.1
    c1,0,0.8,0.4,1.6,0.7c0.4,0.1,0.7,0.4,1.3,0.4V40z M179.6,32.1c-1.3-0.7-2-2-3.1-3.2c1.1,0,1.4,1.1,2.2,1.3c0.3,0.3,0.6,0.4,0.8,0.8
    C179.6,31.4,179.6,31.7,179.6,32.1z M167.7,21.8c-0.8,0-1.3-0.4-1.7-1.2c0-0.4-0.1-1,0-1.7c0.3,0.6,0.3,0.8,0.6,1.1
    c0.6-0.3,0.6,0.4,0.7,0.6C167.4,21,167.7,21.4,167.7,21.8z M190.7,45.5c-0.3,0.4-0.3,0.4-0.4,0.8c0-0.7-0.8-1.1-1.4-2.2l0.6-1
    c0.4,0.3,1,0.7,1,1.4c0,0-0.1,0.3,0,0.6C190.4,45.2,190.7,45.2,190.7,45.5z M187.9,41.5c0,0.6-0.1,0.7-0.3,1.4c-1-0.1-1-1.3-1.1-1.4
    c-0.7-0.8-1.6-0.1-2.3-0.1c-0.3-0.8,0.1-0.8,0.1-1.4c0.4,0,0.8-0.3,1.2,0c0.6-0.3,1,0.4,1.7,0.4C187.5,40.7,187.8,41.4,187.9,41.5z
    M180.9,35.8c0,0.6-0.3,1-0.1,1.5c-0.3-0.8-0.8-1.7-1.1-2.5c0-0.1-0.1-0.1,0.1-0.3c0.1,0,0.7,0,0.7,0.1
    C180.6,35,180.9,35.4,180.9,35.8z M168.7,24.9c-0.1,0.6-0.7,0-0.8,0c-0.4,0-1,0-1.3,0c-0.1-0.3-0.3-0.4-0.3-0.7
    c0.6-0.1,1-0.4,1.4-0.1C168,24.5,168.3,24.9,168.7,24.9z M171.8,28c-0.4,0.4-1.5,0.6-2.4-0.1l1.1-0.5
    C170.9,27.8,171.5,27.9,171.8,28z M178.9,35.9c0,0.8-0.1,1.8-0.1,2.8c-0.4,0-0.4-0.3-0.4-0.8c-0.1-0.8-0.4-1.5-0.7-2.4
    c-0.3-1.1-1-2-1.5-3.3c-0.1-0.6-0.8-0.8-1.4-1.3c0.7,0,1.4,0,2,0.6c0,0.3,0.1,0.4,0.6,0.8c1,0,0.7,1.3,1.5,1.8
    c-0.4,0.4-0.6,0.6-0.8,0.9C178.4,35.4,178.8,35.5,178.9,35.9z M173.5,31.8c0,0.4-0.3,0.6-0.5,0.8c0,0-0.5-0.7-0.5-1
    c0-0.6,0-0.8,0.1-1.3C172.9,30.8,173.5,31.4,173.5,31.8z M186.5,44.5c0,0.1-0.3,0.3-0.3,0.3c-0.6-0.3-1-0.4-1.9-0.4
    c0-0.6-0.4-1.3-0.7-1.3c-0.8,0-0.7,0.6-1.4,0.6l1.3-1.3c0.1-0.3,0.1-0.3,0.4-0.3c0.4,0.3,0.6,0.4,1,0.4c0,0.3,0,0.4-0.1,0.8
    c0.4,0.3,0.7-0.1,0.9,0.3C186.1,43.8,186.5,43.9,186.5,44.5z M175.3,34.8c0,0.3-0.4,0.5-0.6,0.5c0,0-0.7-0.7-0.8-1.3
    c-0.1-0.6,0.4-1.5,0.4-1.5c0.1,0,0.3,0.3,0.4,0.3c0.1,0.1,0,0.6,0.1,1C175.3,34,175.6,34.5,175.3,34.8z M164.6,21.4
    c-1.7-0.9-3.5-1.6-5.5-1.7c0,0.4,0,0.8-0.1,1c1.6,0.8,3.1,1.5,4.5,2.7v1.3c-1.4-1.4-2.9-2.8-4.7-3.2c-0.1,0.3-0.7,0.6-0.8,1.1
    c-1-0.7-2.1-1.4-3.2-1.5c-0.4,0-0.7-1.5-0.7-1.5c0.7-0.3,1.1-0.7,1.4-1.4c0.1,0,0.4,0,0.6,0c0.4,0,0.4-0.3,0.4-0.7
    c0-0.8-1.8-0.8-2.7-0.8c-1,0-1.7,0-2.2,0.4c-0.3,0-0.1,0.4-0.1,0.7c0,0.1,0.4,0.4,0.4,0.4c0.3,0,0.6-0.3,0.8-0.3
    c-0.1,0.8,0.1,1.3,1,1.7l-0.1,1.4c-1.7,0-2.8,0.7-4,1.2c-0.4-0.3-0.7-0.7-1-1.1c-1.7,0.6-4.5,2.8-4.5,2.8s0-0.6,0-1
    c1.2-1.1,2.8-1.7,4.1-2.3v-1c-0.6-0.3-1.1,0-1.7,0c-1.2,0.1-2.4,0.7-3.2,1.4c0-0.4-0.1-0.9-0.1-0.9c1.5-0.8,3.4-1.5,5.2-1.3
    c0-0.1,0-0.6,0-0.6c-0.1-0.3-0.1-0.7-0.4-0.7c-0.8-0.8-1.7-2.1-1.7-2.9l0.6-0.3c-0.3-0.8-0.6-2.9,0-3.6c-0.8-0.4-1.6-1.1-1.8-1.7
    c-0.3-0.7-0.6-1.1-0.7-1.9c0.4-0.8,0.7-1.1,1.1-1.9c0.3,0,0.6-0.1,0.8-0.4c0.7-0.1,1.1-0.8,1.9-0.4c0.6,0,1.1,0.3,1.5,0.4
    c0,0.3,0,0.4,0.3,0.7c0.8,0,0.8,0.8,1.3,1.5c0.4,0.1,0.8,0.1,1.1,0.1c0.8,0.3,1.5,0.3,1.8,0.6c1.1-0.6,2.2-0.8,3.5-0.6
    c0.1-0.4,0.4-1,0.6-1.7c0.1,0.4,0.1,0,0.4,0c0.5-0.4,1.2-1.1,2.1-0.8c0.6,0.4,1.5,0.1,2.1,0.8c0.4,0.5,0.7,1.4,1.1,2
    c-0.4,0.8,0,1.9-0.8,2.4l-0.8,0.8c-0.3,0-0.3,0.3-0.7,0.3c0.4,1,0.1,2.4-0.3,3.3c0.3-0.1,0.7-0.1,0.7-0.5c0.1,0.1,0,0.4,0,0.5
    c0,0.3,0,0.4,0,0.4c0,0.7-0.4,1.4-1,2c-0.3,0.8-1,2-1.9,2.1V19c2,0,3.7,0.6,5.7,1.5V21.4z M170.2,30.1l-0.7,0.3
    c-1.5,0-2.2-0.4-2.9-1c0.6,0,1.3-0.7,1.3-0.7C168.6,29.4,169.5,30,170.2,30.1z M166.3,27c-0.8,0-1.8,0.4-2.2-0.4
    c0.3-0.1,0.6-0.6,0.8-0.8L166.3,27z M177.7,40c0,0.7-0.8,1.5-1.1,2.1c0.3-0.7,0.3-2.1,0-2.1c-0.3-0.1-0.8,0-0.8-0.3
    c0-0.4,0.1-1,0.1-1.3c0-0.6-0.4-0.8-0.4-1.1c0-0.8,1-1,1.3-1.5c0.1,0.6,0.1,1.1,0.1,1.8c0,0.3,0.4,1.1,0,1.8
    C176.8,39.8,177.7,39.6,177.7,40z M174.4,38.4c0,0.8-0.6,1.5-0.7,2.4c0-0.8-0.1-1.5-0.7-2.1c0-0.3,0.4-0.3,0.1-0.7
    c0,0-0.8-0.4-0.8-1c0-0.6,0.5-1,0.8-1.4c0-0.1,0.6,0.3,0.6,1.1c0,0.1,0,0.6-0.1,0.8C173.5,38,174.4,38,174.4,38.4z M163,28.6
    c-0.7,0.1-1.3-0.6-2-0.8c-0.3-0.8-0.3-1.6-0.6-2c0.6,0.4,1.8,0.4,1.5,1.7C162,27.8,162.6,28,163,28.6z M166.9,32.5
    c-0.6,0-1.5,0-2-0.4c-0.8-0.4-1.1-0.7-1.5-1.1c0.6-0.4,1.3-0.4,1.5-0.6C165.4,31,165.9,31.9,166.9,32.5z M143.5,11.1l-1,0.3l0.1-0.7
    c0.3-0.4,0.4-0.8,0.8-1.3V11.1z M161.3,30.4c-0.6,0.1-1.5,0.4-1.8-0.3c-0.8-1.3-0.4-2.4,0-3.3c0.3,0.8,0.4,1.6,0.5,2.3
    C160.2,29.7,161.1,30,161.3,30.4z M157.4,22.8c-0.1,0.8-0.4,2.1-1.3,2.7c0-0.6-0.3-0.8-0.6-1.3c-0.1,0,0,0.4-0.1,0.4
    c0,0.3-0.3,0.8-0.3,1.4c-0.3,0.1-0.8,0.4-1.4,0.1v-0.4c-0.1-0.3-0.1-0.8-0.1-1.1l-0.1-0.1c-0.4,0.1-0.4,0.4-0.4,0.7
    c-0.1,0.3-0.4,0.6-0.4,1c-0.6,0-0.8-0.1-1.3-0.4v-1.3c0-0.3,0-0.3-0.1-0.3l-0.7,0.7c-0.6-0.4-0.7-1.5-0.7-2.2c2.2-1.3,5-0.8,6.7-0.1
    C156.8,22.7,157.1,22.7,157.4,22.8z M164.6,34c0,0-0.3,0-0.4,0c-1.5,0.5-2.8-0.4-4.1-1.3c0.7-0.3,1.7-0.4,2.5-0.4l0.4,0.8
    C163.4,33.4,164.1,33.8,164.6,34z M143.8,13l-0.7,0.8c0.1,1.3-0.4,2.3-0.4,3.6l-0.7-2.2c0.1-0.6,0.3-1.1,0.7-1.8L143.8,13z
    M158.1,31c-0.7-0.4-2-0.6-1.7-1.4c0.3-0.7,0.7-0.8,1-1.1C157.5,29.4,157.7,30.1,158.1,31z M170.9,45.2h-0.1
    c-0.3-0.4-0.4-0.7-0.7-0.7c0.4-1.5-0.4-2.8-0.7-4V40c0.4,0.7,1.5,1.4,1.4,2.1C170.9,43.3,170.9,44.5,170.9,45.2z M167.7,40
    c-0.7,0-1.3,0-1.7-0.7c-0.1,0-0.4-0.4-0.5-0.1c-0.7,0.6-1.4-0.4-2.2-0.3c-0.4,0.4-0.8,0.7-1.5,0.8v-0.1c0-0.4,0.3-0.8,0.8-1.1
    c0.8,0.3,1.5-1.5,2.4-0.6c0.4,0.1,0.8,0.1,1.1,0.1C167,38.4,167.3,39.3,167.7,40z M155,28.7c0,1-0.1,2.2-1.1,2.7l-0.3-1.4
    C154.1,29.7,154.5,29.4,155,28.7z M159.7,34.8c-0.3,0.3-1,0.5-1.6,0.5c-0.8-0.7-1.4-1.5-2.2-2.6l2.2,0.4
    C158.5,33.5,159.3,34.4,159.7,34.8z M168,42.8c-0.6-0.4-1.4-0.4-1.7-1.1c-0.5-0.1-0.9-0.1-1.6-0.1c-0.6,0.1-1.3,0.1-1.8,0.1
    c-0.1,0,0-0.1-0.3-0.3c-0.8,0.3-1.7,0.3-2.5,1.1l0.7-1.7c0.6,0,1-0.3,1.3-0.3c0.6-0.1,1-0.1,1.4-0.1v0.1c1.5,0,3.3-0.1,4.4,1.1
    L168,42.8z M152.1,31c-0.8-0.8-1.5-1.5-1.5-2.4c0.4,0,0.8,0,1.3,0.3C151.8,29.6,152.1,30.1,152.1,31z M149.4,27l-0.4,1.7
    c-0.4-0.8-0.8-1.6-1-2.6L149.4,27z M169.4,45.6c-0.1,0.3-0.4,1.1-0.6,1.7c-0.3-0.8-0.6-2.1-1.5-2.1c-0.1-0.6-0.3-0.7-0.8-1.1
    l-1.1-0.1c0.1,0.6,0.9,0.6,0.4,1.3c0.5,0.4,1,0.4,1.2,1.1c0.3,0.4,0,1,0.1,1.3l-0.8,0.4c0-0.7,0.1-2.1-0.8-2.4
    c-0.8,0.3-1-0.8-1.5-1.1c-0.3,0-0.3-0.7-0.7-0.4c-0.7,0.4-1.5,0-2.2,0.4l0.7-1.1c0.6-0.4,1.1-0.3,1.7-0.4l1.1-0.1c1.1,0,2,0.6,3.2,1
    c0.6,0.3,0.8,0.7,0.8,1.3C168.8,45.2,169.4,45.2,169.4,45.6z M158.4,39.1h-0.3c-0.1,0-1.1-0.4-1.4-0.7c-0.1-0.4-0.1-0.8-0.1-0.8
    c0.4,0,0.7,0,1.1,0L158.4,39.1z M147.6,29.2c-0.8-0.3-1.8-1.1-2.2-1.7c-0.3-0.6-0.4-1.3-0.4-1.7c0.5,0,0.9,0.4,1,0.7v0.1
    C146.8,27.4,147.5,28,147.6,29.2z M154.3,34c-0.1,0.8-0.6,1-1.3,2c-0.4,0.3-1.3,0.4-2.1,0.8c0.1-0.4,0.5-0.6,0.8-1
    c0.3-0.4,0.8-1.1,1-1.5C153.5,34,153.8,34,154.3,34z M164.6,47.5l-0.4,0.4c-0.4-0.4-0.1-1.5-0.8-1.7c-0.7,0-1.3-0.7-1.5-0.8l0.6-0.3
    c0,0,0.3-0.1,0.6,0c0.3,0.3,0.6,0.4,0.6,0.7c0.3,0.4,0.7,0,1,0.4C164.6,46.7,164.7,47.2,164.6,47.5z M151.8,32.9
    c-0.4,0.8-0.8,1.6-1.7,1.9c-0.4,0-1.1,0.3-2,0c0.4-0.3,0.8-0.4,1.4-0.8l1.1-1.1H151.8z M154.6,39.3c-0.6,0.4-1,0.4-1.7,0.3l-0.8-1.1
    c0.7,0,1.5,0,2.1,0L154.6,39.3z M144.5,28.7c-0.7,0.7-1.4,1-1.7,1.8c0-0.4-0.1-0.8-0.3-1.1c0.1-0.6,0.6-0.8,0.7-1
    C143.7,28.6,144,28.6,144.5,28.7z M146.1,30.8c0,0.6-0.2,1.3-0.9,2c-0.1,0.1-0.5,0.4-0.5,0.4c0-0.8,0.4-1.5,0.4-2.2
    C145.5,30.8,145.8,30.6,146.1,30.8z M148,32.5l-0.6,2c-0.7,0.5-1.6,0.3-2.4,0.3c1-0.3,1.9-1.5,2.4-2.3
    C147.6,32.4,147.8,32.5,148,32.5z M148.7,39.6c0,0.4-0.1,2.1-0.1,2.1c-0.3-1-1-2-1.8-2c-0.4-0.4-0.8-0.8-0.9-1.3
    c-0.4-0.4-0.8,0-1.3-0.4c-0.6,0-1.3,0-1.8,0.4V38l1-1.1c1,0.1,2.1,0,2.4,0.7c0.7,0.4,1.4,0.8,1.5,1.1c0,0.1,0,0.1,0,0.4
    C147.9,39.3,148.5,39.4,148.7,39.6z M148,43.9l-1,0.9c-0.3-0.3,0-1-0.4-1.4c0-0.3,0.3-0.4,0.1-0.6c-0.1-0.3-1.7-0.8-1.7-0.8
    c-0.5-0.4-1.2-0.8-1.8-1.4c-0.6-0.1-1,0.1-1.7,0.3c0-0.1,0-0.3,0-0.3c0.3-0.6,0.3-1.3,1.1-1.3c0.4,0,1,0,1.3,0.4
    c0.6,0,0.8,0.6,1.2,0.7c0.6,0.7,1.2,1,1.6,1.3c0,0.4,0.1,0.7,0.4,0.8C148,42.5,147.8,43.3,148,43.9z M146,45.9l-0.4,1.4l-0.9-2.5
    c-1.1-1-2.4-1.1-3.1-1.7c-0.6-0.1-0.6,0.3-0.8,0c0-0.3,0-0.7,0.4-1.1h0.8l0.8,0.4c0.4,0.4,1.4,0.4,1.4,1.3c0,0.1-0.1,0.3,0.3,0.8
    l1.3,0.3L146,45.9z M142.2,47.2c0,1.1-1.8,2.7-1.8,2.7c0-0.7,0.4-1.5,0.4-2.4c0,0-0.6-0.6-1.1-0.6c-0.4,0.3-0.4,0.6-0.6,1
    c-0.4,0.8-1.3,1.7-1.4,2.5c-0.1,0-0.1-0.1-0.1-0.1c0-1.4,0.1-3.8,1-4.7c0.7-0.8,1.3-0.8,2.1-1l0.7,0.1l-0.6,0.8
    C141.3,45.9,142.2,46.4,142.2,47.2z M137.3,46.4c0,0.6-0.1,1.1-0.4,1.5c-0.1-0.6-0.5-1.3-1.2-1.3c-0.6,1.1-0.7,1.5-0.1,3.2
    c-0.4,0.4-0.7,0.6-1.2,0.8c-0.3-0.6-0.3-1.5-0.3-2.1c0-1,0.1-2,0.4-2.8c0.4-0.4,0.7-1.1,1.1-1.4h1.5c-0.7,0-0.7,0.6-0.7,1
    C136.7,45.6,137.3,45.7,137.3,46.4z M133.7,47.9c-0.1,0-0.6-0.4-1-0.4c-0.4,0.8,0,1.4,0,2.4c0,0.4-0.1,0.8-0.1,0.8
    c-0.3,0-0.8-0.6-0.9-1.1v-2.2l1.2-1.5C133.7,46.4,134,47.2,133.7,47.9z M162.3,9.4c0.3-0.7,0.3-1.9-0.3-2.6c-0.3-0.6-1-0.8-1.7-1.4
    l-1,0.5c-0.5,0.3-0.8,0.8-0.8,1.5c0.9,0.4,1.9,1.5,2.3,2.4h0.4C161.8,9.4,162,9.8,162.3,9.4z M157.7,10.2c0-0.4-0.1-0.4-0.3-0.4
    c-0.7,0-0.7-1.1-1.3-0.8c-0.3,0-0.6-0.3-1,0c0,0.1,0,0.1,0.3,0.1c0.7,0,0.4,1,1,1.1C156.7,10.2,157.3,10.2,157.7,10.2z M159.8,11.9
    c0,0,0.3,0,0-0.1l-3-0.4c-0.3,0.4-1,0.4-1,0.8h-0.3c0.3,1.1,0.3,2.3,0.3,3.6c0.6,0.1,1.1,0.4,1.1,1.3c0.6,0.3,1.1,0.4,1.7,0.8
    c0.3-0.1,0.4-0.6,0.5-1c-0.5-0.7-1.7-0.3-1.7-1.5l-0.8-0.3c0-0.8,0-1.6-0.1-2.2l0.1-0.1c0,0.1,0.1,0.2,0.4,0.5
    c0.6,0,1.1,0.1,1.7-0.3c0.3-0.1,0.3-0.8,0.5-0.8C159.4,12.2,159.7,12.2,159.8,11.9z M152.9,9c-0.3-0.3-1.1,0.1-1.5,0.3
    c-0.6,0.1-1,0.6-1,1h1.5C152.1,9.8,152.7,9.2,152.9,9z M149.9,7.4c-0.1-1.4-1.7-1.5-2.4-2h-0.6c-1.1,0.4-1.3,1.5-1.5,2.4
    c0.4,1.3,1.2,0.4,1.7,1.3C147.8,8.7,149.2,7.7,149.9,7.4z M158.1,20.2v-0.7h-1.4l-0.1,0.1L158.1,20.2z M151.8,12.2
    c0-0.3-0.3-0.6-0.7-0.8c-1.1,0-2.1,0-3.1,0h-0.3c0,0.6,0.4,0.8,0.8,0.8c0,0.6,0.4,0.7,0.6,0.8c0.4,0.3,0.6,0.3,1,0
    c0.4,0.3,0.6-0.2,0.7,0c0,0.8,0,1.2-0.1,1.9c-0.1,1-1,0.8-1.7,1.3c0,0.4-0.4,1.1,0,1.5c0.4-0.3,0.7-0.4,1.4-0.7c0-0.4,0.4-0.8,1-1.1
    C151.4,14.6,151.8,13.4,151.8,12.2z M150.7,19.5c-0.3-0.6-1,0-1.7-0.3c0,0.3,0,0.6,0.4,0.8C149.9,19.7,150.6,19.5,150.7,19.5z"/>
</svg>
